<svg width="17" height="13" viewBox="0 0 17 13" fill="none" xmlns="http://www.w3.org/2000/svg">
<path d="M9.50552 1.75635C5.73266 2.79087 2.96049 4.74403 1.24531 7.49539C-0.46988 10.2467 1.17895 12.0402 3.93236 11.808C6.68577 11.5758 11.2969 10.0166 14.0503 7.95987C16.8037 5.90311 16.671 4.44345 16.2066 3.3819C15.7421 2.32034 13.619 0.628422 9.50552 1.75635Z" fill="#FAB13D"/>
<path fill-rule="evenodd" clip-rule="evenodd" d="M0.909249 7.28593C2.68619 4.4355 5.5498 2.43047 9.40069 1.37455C13.6433 0.21124 16.0031 1.92951 16.5691 3.22319C16.8249 3.80792 17.005 4.54408 16.7103 5.42342C16.4213 6.28567 15.6957 7.22472 14.287 8.27695C12.8696 9.33577 10.9906 10.2557 9.12759 10.9397C7.26509 11.6234 5.3881 12.0824 3.96547 12.2024C2.51568 12.3247 1.24561 11.9226 0.590217 10.9997C-0.0808331 10.0546 0.0066479 8.73381 0.909249 7.28593ZM1.24516 7.49534C2.96034 4.74398 5.73251 2.79082 9.50537 1.7563C13.6189 0.628367 15.742 2.32029 16.2064 3.38184C16.6708 4.4434 16.8036 5.90306 14.0501 7.95982C11.2967 10.0166 6.68562 11.5757 3.93221 11.808C1.1788 12.0402 -0.470031 10.2467 1.24516 7.49534Z" fill="#B7690D"/>
<path d="M4.20538 4.91914C2.65549 5.86762 1.67066 7.09685 1.26044 8.54581C0.850215 9.99477 1.81735 10.5822 3.01591 10.1233C4.21447 9.66432 4.49114 8.25932 5.45423 6.98629C6.41733 5.71326 7.45914 5.23056 7.45914 4.53252C7.45914 3.99389 5.89521 3.88502 4.20538 4.91914Z" fill="#FCC66F"/>
<path fill-rule="evenodd" clip-rule="evenodd" d="M3.62022 6.32714C3.78221 6.47394 3.79452 6.72427 3.64771 6.88626C3.05031 7.54546 2.79398 8.11259 2.59632 8.54993C2.57222 8.60326 2.54898 8.65466 2.52611 8.70406C2.43427 8.90245 2.19899 8.98881 2.00061 8.89697C1.80222 8.80512 1.71586 8.56985 1.8077 8.37146C1.82899 8.32547 1.85123 8.27614 1.87487 8.22368C2.07542 7.77873 2.37709 7.1094 3.0611 6.35464C3.2079 6.19265 3.45823 6.18034 3.62022 6.32714Z" fill="#FFDFAD"/>
<path fill-rule="evenodd" clip-rule="evenodd" d="M2.51986 11.733C5.55874 11.1225 9.54351 9.59819 12.0973 7.69054C15.1723 5.39355 15.0241 3.76341 14.5054 2.57787C14.3723 2.27355 14.1171 1.92286 13.7336 1.59094C15.1381 1.96658 15.942 2.77669 16.2068 3.3819C16.6712 4.44346 16.8039 5.90312 14.0505 7.95988C11.2971 10.0166 6.68599 11.5758 3.93259 11.808C3.41822 11.8514 2.9424 11.8241 2.51986 11.733Z" fill="#EDA024"/>
<path d="M6.58635 8.09251C5.84326 6.63288 3.64496 5.86989 2.63869 5.67084C3.01024 5.06045 3.76659 4.554 4.09833 4.37708C5.7172 5.38555 6.43154 7.27423 6.58635 8.09251Z" fill="#D08814"/>
<path d="M9.92807 6.77688C9.06027 4.80189 7.05917 3.26534 6.0529 3.0663C6.69627 2.52767 7.95051 2.24077 8.28224 2.06384C10.1375 3.0663 9.77326 5.9586 9.92807 6.77688Z" fill="#A56112"/>
<path d="M13.1895 4.50259C12.3816 2.48272 11.3977 2.05885 10.5313 1.50978C10.9901 1.31568 12.1729 1.36084 12.5462 1.31568C13.3242 2.39294 13.3242 3.26075 13.1895 4.50259Z" fill="#9C5807"/>
<path fill-rule="evenodd" clip-rule="evenodd" d="M3.94389 4.39353C3.96694 4.28668 4.07224 4.21875 4.17909 4.24179C4.61781 4.33642 5.17469 4.69333 5.68562 5.28926C6.20108 5.89046 6.6825 6.74884 6.96272 7.87356C6.98915 7.97962 6.92459 8.08703 6.81852 8.11345C6.71246 8.13988 6.60505 8.07532 6.57863 7.96926C6.31274 6.90204 5.85902 6.09964 5.38512 5.5469C4.90669 4.98888 4.41997 4.69869 4.09563 4.62873C3.98878 4.60568 3.92085 4.50038 3.94389 4.39353Z" fill="#FFDFAC"/>
<path fill-rule="evenodd" clip-rule="evenodd" d="M8.38845 2.02615C8.45055 1.93621 8.57382 1.91364 8.66377 1.97574C9.0235 2.22413 9.43502 2.78856 9.75567 3.57302C10.0796 4.36541 10.3202 5.40451 10.3202 6.62722C10.3202 6.73652 10.2316 6.82513 10.1223 6.82513C10.013 6.82513 9.92441 6.73652 9.92441 6.62722C9.92441 5.45599 9.69378 4.46775 9.38927 3.72279C9.08152 2.9699 8.70753 2.48698 8.43886 2.30147C8.34891 2.23937 8.32634 2.1161 8.38845 2.02615Z" fill="#FFDFAC"/>
<path fill-rule="evenodd" clip-rule="evenodd" d="M12.5431 1.28726C12.6125 1.2028 12.7372 1.19057 12.8217 1.25995C13.1818 1.55576 13.4366 2.05848 13.5729 2.62326C13.7104 3.19271 13.7338 3.85013 13.6083 4.48128C13.587 4.58849 13.4828 4.65812 13.3756 4.63681C13.2684 4.61551 13.1988 4.51132 13.2201 4.40411C13.334 3.83082 13.3125 3.23143 13.1882 2.71614C13.0627 2.19617 12.8387 1.7862 12.5704 1.56582C12.486 1.49644 12.4737 1.37173 12.5431 1.28726Z" fill="#FFDFAC"/>
</svg>
