<svg width="10" height="22" viewBox="0 0 10 22" fill="none" xmlns="http://www.w3.org/2000/svg">
<path d="M8.57051 19.7812C8.57051 20.3266 6.96991 20.7687 4.99547 20.7687C3.02104 20.7687 1.42044 20.3266 1.42044 19.7812C1.42044 19.2359 3.02104 18.7938 4.99547 18.7938C6.96991 18.7938 8.57051 19.2359 8.57051 19.7812Z" fill="#A0D6ED"/>
<path fill-rule="evenodd" clip-rule="evenodd" d="M7.61687 20.9667C6.93113 21.1561 6.00454 21.2687 4.99548 21.2687C3.98643 21.2687 3.05984 21.1561 2.37409 20.9667C2.03457 20.8729 1.73103 20.7542 1.50223 20.6048C1.38806 20.5302 1.27283 20.4355 1.18169 20.3125C1.08826 20.1864 1.00378 20.0065 1.00378 19.7812C1.00378 19.556 1.08826 19.3761 1.18169 19.25C1.27283 19.127 1.38806 19.0323 1.50223 18.9577C1.73103 18.8083 2.03457 18.6895 2.37409 18.5958C3.05984 18.4064 3.98643 18.2938 4.99548 18.2938C6.00454 18.2938 6.93113 18.4064 7.61687 18.5958C7.9564 18.6895 8.25994 18.8083 8.48873 18.9577C8.60291 19.0323 8.71814 19.127 8.80928 19.25C8.90271 19.3761 8.98718 19.556 8.98718 19.7812C8.98718 20.0065 8.90271 20.1864 8.80928 20.3125C8.71814 20.4355 8.60291 20.5302 8.48873 20.6048C8.25994 20.7542 7.9564 20.8729 7.61687 20.9667ZM4.99548 20.7687C6.96992 20.7687 8.57052 20.3266 8.57052 19.7812C8.57052 19.2359 6.96992 18.7938 4.99548 18.7938C3.02105 18.7938 1.42045 19.2359 1.42045 19.7812C1.42045 20.3266 3.02105 20.7687 4.99548 20.7687Z" fill="#377894"/>
<path d="M5.78775 19.6894C5.78775 20.0007 4.87422 20.253 3.74733 20.253C2.62044 20.253 1.70691 20.0007 1.70691 19.6894C1.70691 19.3782 2.62044 19.1259 3.74733 19.1259C4.87422 19.1259 5.78775 19.3782 5.78775 19.6894Z" fill="#D7F3FF"/>
<path d="M4.67447 10.7695C4.67447 10.5538 4.82021 10.3789 4.99999 10.3789C5.17977 10.3789 5.32551 10.5538 5.32551 10.7695V19.1406C5.32551 19.3563 5.17977 19.5312 4.99999 19.5312C4.82021 19.5312 4.67447 19.3563 4.67447 19.1406V10.7695Z" fill="#A0D6ED"/>
<path fill-rule="evenodd" clip-rule="evenodd" d="M5.74219 10.7695V19.1406C5.74219 19.6324 5.4099 20.0312 5 20.0312C4.5901 20.0312 4.25781 19.6324 4.25781 19.1406V10.7695C4.25781 10.2777 4.5901 9.87891 5 9.87891C5.4099 9.87891 5.74219 10.2777 5.74219 10.7695ZM5 10.3789C4.82022 10.3789 4.67448 10.5538 4.67448 10.7695V19.1406C4.67448 19.3563 4.82022 19.5312 5 19.5312C5.17978 19.5312 5.32552 19.3563 5.32552 19.1406V10.7695C5.32552 10.5538 5.17978 10.3789 5 10.3789Z" fill="#649DB6"/>
<path fill-rule="evenodd" clip-rule="evenodd" d="M4.84374 13.7656C4.9588 13.7656 5.05207 13.8776 5.05207 14.0156V16.3594C5.05207 16.4974 4.9588 16.6094 4.84374 16.6094C4.72868 16.6094 4.63541 16.4974 4.63541 16.3594V14.0156C4.63541 13.8776 4.72868 13.7656 4.84374 13.7656Z" fill="#C8EFFF"/>
<path d="M1.40334 2.3125H8.58195L9.47303 8.61919C9.75556 9.98532 9.05636 10.9831 7.94018 11.681C6.90426 12.3286 6.16258 12.4541 4.99265 12.4541C3.82271 12.4541 3.08853 12.3111 2.04511 11.681C1.29406 11.2274 0.224315 10.3291 0.512261 8.6192L1.40334 2.3125Z" fill="#BBE9FD"/>
<path fill-rule="evenodd" clip-rule="evenodd" d="M0.992377 2.22892C1.02635 1.98846 1.19994 1.8125 1.40318 1.8125H8.58179C8.78503 1.8125 8.95862 1.98846 8.99259 2.22892L9.88116 8.5178C10.0451 9.33113 9.91813 10.0588 9.57875 10.676C9.24627 11.2807 8.7251 11.7539 8.13254 12.1244C7.01859 12.8208 6.20477 12.9541 4.99249 12.9541C3.77484 12.9541 2.97291 12.8011 1.85765 12.1276C1.46148 11.8884 0.942714 11.5105 0.561736 10.9308C0.169023 10.3333 -0.06554 9.53662 0.102352 8.52815L0.992377 2.22892ZM0.5121 8.6192C0.224154 10.3291 1.2939 11.2274 2.04495 11.681C3.08837 12.3111 3.82255 12.4541 4.99249 12.4541C6.16242 12.4541 6.9041 12.3286 7.94002 11.681C9.0562 10.9831 9.7554 9.98532 9.47287 8.61919L8.58179 2.3125H1.40318L0.5121 8.6192Z" fill="#6BB3D1"/>
<path d="M4.99265 12.454C6.16258 12.454 6.90426 12.3286 7.94018 11.6809C9.05636 10.983 9.75556 9.98526 9.47303 8.61913L9.16944 6.47046H0.81585L0.512261 8.61914C0.224315 10.329 1.29406 11.2274 2.04511 11.6809C3.08853 12.311 3.82271 12.454 4.99265 12.454Z" fill="#99130C"/>
<path fill-rule="evenodd" clip-rule="evenodd" d="M9.16928 6.47046L9.47287 8.61913C9.7554 9.98526 9.0562 10.983 7.94002 11.6809C6.9041 12.3286 6.16242 12.454 4.99249 12.454C3.82255 12.454 3.08837 12.311 2.04495 11.6809C1.2939 11.2274 0.224154 10.329 0.5121 8.61913L0.815689 6.47046H9.16928ZM0.102352 8.52808C-0.0655402 9.53656 0.169023 10.3332 0.561736 10.9308C0.942714 11.5105 1.46148 11.8883 1.85765 12.1275C2.97291 12.801 3.77484 12.954 4.99249 12.954C6.20477 12.954 7.01859 12.8208 8.13254 12.1243C8.7251 11.7538 9.24627 11.2807 9.57875 10.676C9.91813 10.0587 10.0451 9.33107 9.88116 8.51774L9.58009 6.38688C9.54611 6.14642 9.37252 5.97046 9.16928 5.97046H0.815689C0.612448 5.97046 0.43886 6.14642 0.404886 6.38688L0.102352 8.52808Z" fill="#5B0501"/>
<path d="M3.47647 10.3484C3.47647 11.2391 2.84496 11.4455 2.14835 11.2234C1.45173 11.0013 0.846259 10.2391 0.77465 9.42653C0.70304 8.614 0.937399 7.80151 1.64054 7.98906C2.34367 8.17661 3.47647 9.45773 3.47647 10.3484Z" fill="#780A04"/>
<path d="M8.57051 2.21874C8.57051 2.76408 6.96991 3.20616 4.99547 3.20616C3.02104 3.20616 1.42044 2.76408 1.42044 2.21874C1.42044 1.67341 3.02104 1.23132 4.99547 1.23132C6.96991 1.23132 8.57051 1.67341 8.57051 2.21874Z" fill="#D7F3FF"/>
<path fill-rule="evenodd" clip-rule="evenodd" d="M7.61687 3.40421C6.93113 3.59362 6.00454 3.70616 4.99548 3.70616C3.98643 3.70616 3.05984 3.59362 2.37409 3.40421C2.03457 3.31044 1.73103 3.19168 1.50223 3.04228C1.38806 2.96772 1.27283 2.87298 1.18169 2.74996C1.08826 2.62385 1.00378 2.44402 1.00378 2.21874C1.00378 1.99346 1.08826 1.81363 1.18169 1.68753C1.27283 1.56451 1.38806 1.46977 1.50223 1.39521C1.73103 1.2458 2.03457 1.12705 2.37409 1.03327C3.05984 0.843871 3.98643 0.731323 4.99548 0.731323C6.00454 0.731323 6.93113 0.843871 7.61687 1.03327C7.9564 1.12705 8.25994 1.2458 8.48873 1.39521C8.60291 1.46977 8.71814 1.56451 8.80928 1.68753C8.90271 1.81363 8.98718 1.99346 8.98718 2.21874C8.98718 2.44402 8.90271 2.62385 8.80928 2.74996C8.71814 2.87298 8.60291 2.96772 8.48873 3.04228C8.25994 3.19168 7.9564 3.31044 7.61687 3.40421ZM4.99548 3.20616C6.96992 3.20616 8.57052 2.76408 8.57052 2.21874C8.57052 1.67341 6.96992 1.23132 4.99548 1.23132C3.02105 1.23132 1.42045 1.67341 1.42045 2.21874C1.42045 2.76408 3.02105 3.20616 4.99548 3.20616Z" fill="#6BB3D1"/>
<path fill-rule="evenodd" clip-rule="evenodd" d="M5.00003 1.69925C5.00181 1.5612 5.09652 1.45102 5.21156 1.45316C6.58261 1.47866 7.5037 1.88805 7.81593 2.11405C7.91446 2.18537 7.94615 2.33902 7.88673 2.45725C7.8273 2.57548 7.69925 2.61351 7.60073 2.5422C7.36609 2.37237 6.52156 1.97759 5.2051 1.9531C5.09006 1.95095 4.99824 1.8373 5.00003 1.69925Z" fill="white"/>
<path d="M8.61009 9.14148C8.61009 9.48666 8.3769 9.76648 8.08925 9.76648C7.80161 9.76648 7.56842 9.48666 7.56842 9.14148C7.56842 8.7963 7.80161 8.51648 8.08925 8.51648C8.3769 8.51648 8.61009 8.7963 8.61009 9.14148Z" fill="#E3160C"/>
<path d="M7.81583 10.618C7.81583 10.864 7.64968 11.0634 7.44473 11.0634C7.23978 11.0634 7.07364 10.864 7.07364 10.618C7.07364 10.3721 7.23978 10.1727 7.44473 10.1727C7.64968 10.1727 7.81583 10.3721 7.81583 10.618Z" fill="#E3160C"/>
<path d="M6.80659 10.4969C6.80659 10.6836 6.68053 10.8348 6.52501 10.8348C6.3695 10.8348 6.24344 10.6836 6.24344 10.4969C6.24344 10.3103 6.3695 10.1591 6.52501 10.1591C6.68053 10.1591 6.80659 10.3103 6.80659 10.4969Z" fill="#E3160C"/>
<path d="M7.84992 7.96179C7.84992 8.1484 7.72386 8.29968 7.56835 8.29968C7.41284 8.29968 7.28677 8.1484 7.28677 7.96179C7.28677 7.77518 7.41284 7.6239 7.56835 7.6239C7.72386 7.6239 7.84992 7.77518 7.84992 7.96179Z" fill="#E3160C"/>
<path d="M7.99798 6.87C7.99798 6.9811 7.92292 7.07117 7.83033 7.07117C7.73775 7.07117 7.66269 6.9811 7.66269 6.87C7.66269 6.75889 7.73775 6.66882 7.83033 6.66882C7.92292 6.66882 7.99798 6.75889 7.99798 6.87Z" fill="#E3160C"/>
<path d="M8.77755 6.31531C8.77755 6.42641 8.70249 6.51648 8.6099 6.51648C8.51732 6.51648 8.44226 6.42641 8.44226 6.31531C8.44226 6.2042 8.51732 6.11414 8.6099 6.11414C8.70249 6.11414 8.77755 6.2042 8.77755 6.31531Z" fill="#E3160C"/>
<path d="M6.14733 11.1161C6.14733 11.2272 6.07227 11.3173 5.97969 11.3173C5.8871 11.3173 5.81204 11.2272 5.81204 11.1161C5.81204 11.005 5.8871 10.9149 5.97969 10.9149C6.07227 10.9149 6.14733 11.005 6.14733 11.1161Z" fill="#E3160C"/>
<path d="M5.33529 11.7489C5.33529 11.86 5.26023 11.9501 5.16764 11.9501C5.07506 11.9501 5 11.86 5 11.7489C5 11.6378 5.07506 11.5477 5.16764 11.5477C5.26023 11.5477 5.33529 11.6378 5.33529 11.7489Z" fill="#E3160C"/>
<path d="M6.24355 9.76648C6.24355 9.87758 6.16849 9.96765 6.07591 9.96765C5.98332 9.96765 5.90826 9.87758 5.90826 9.76648C5.90826 9.65538 5.98332 9.56531 6.07591 9.56531C6.16849 9.56531 6.24355 9.65538 6.24355 9.76648Z" fill="#E3160C"/>
<path d="M6.94982 8.01257C6.94982 8.12368 6.87476 8.21375 6.78218 8.21375C6.68959 8.21375 6.61453 8.12368 6.61453 8.01257C6.61453 7.90147 6.68959 7.8114 6.78218 7.8114C6.87476 7.8114 6.94982 7.90147 6.94982 8.01257Z" fill="#E3160C"/>
<path d="M7.17779 9.14148C7.17779 9.38742 7.01165 9.58679 6.8067 9.58679C6.60175 9.58679 6.43561 9.38742 6.43561 9.14148C6.43561 8.89554 6.60175 8.69617 6.8067 8.69617C7.01165 8.69617 7.17779 8.89554 7.17779 9.14148Z" fill="#E3160C"/>
<path d="M8.9812 7.51648C8.9812 7.76242 8.81506 7.96179 8.61011 7.96179C8.40516 7.96179 8.23901 7.76242 8.23901 7.51648C8.23901 7.27054 8.40516 7.07117 8.61011 7.07117C8.81506 7.07117 8.9812 7.27054 8.9812 7.51648Z" fill="#E3160C"/>
<path d="M9.28719 8.82507C9.28719 8.95236 9.2012 9.05554 9.09513 9.05554C8.98906 9.05554 8.90308 8.95236 8.90308 8.82507C8.90308 8.69779 8.98906 8.5946 9.09513 8.5946C9.2012 8.5946 9.28719 8.69779 9.28719 8.82507Z" fill="#E3160C"/>
<path d="M8.6101 10.2665C8.6101 10.3938 8.52411 10.4969 8.41804 10.4969C8.31197 10.4969 8.22598 10.3938 8.22598 10.2665C8.22598 10.1392 8.31197 10.036 8.41804 10.036C8.52411 10.036 8.6101 10.1392 8.6101 10.2665Z" fill="#E3160C"/>
<path d="M6.80672 11.5477C6.80672 11.675 6.72073 11.7782 6.61466 11.7782C6.50859 11.7782 6.42261 11.675 6.42261 11.5477C6.42261 11.4204 6.50859 11.3173 6.61466 11.3173C6.72073 11.3173 6.80672 11.4204 6.80672 11.5477Z" fill="#E3160C"/>
<path d="M9.16667 6.49844C9.16667 7.13353 7.30264 7.64837 5.00325 7.64837C2.70387 7.64837 0.839844 7.13353 0.839844 6.49844C0.839844 5.86335 2.70387 5.34851 5.00325 5.34851C7.30264 5.34851 9.16667 5.86335 9.16667 6.49844Z" fill="#C12F28"/>
<path fill-rule="evenodd" clip-rule="evenodd" d="M8.0407 7.79882C7.24848 8.01763 6.1748 8.14837 5.00327 8.14837C3.83174 8.14837 2.75805 8.01763 1.96583 7.79882C1.57306 7.69034 1.22645 7.55408 0.967875 7.38523C0.838815 7.30095 0.712025 7.19601 0.613045 7.06241C0.511777 6.92572 0.423187 6.73494 0.423187 6.49844C0.423187 6.26194 0.511777 6.07116 0.613045 5.93447C0.712025 5.80087 0.838815 5.69593 0.967875 5.61165C1.22645 5.4428 1.57306 5.30654 1.96583 5.19806C2.75805 4.97925 3.83174 4.84851 5.00327 4.84851C6.1748 4.84851 7.24848 4.97925 8.0407 5.19806C8.43347 5.30654 8.78008 5.4428 9.03866 5.61165C9.16772 5.69593 9.29451 5.80087 9.39349 5.93447C9.49475 6.07116 9.58334 6.26194 9.58334 6.49844C9.58334 6.73494 9.49475 6.92572 9.39349 7.06241C9.29451 7.19601 9.16772 7.30095 9.03866 7.38523C8.78008 7.55408 8.43347 7.69034 8.0407 7.79882ZM5.00327 7.64837C7.30265 7.64837 9.16668 7.13353 9.16668 6.49844C9.16668 5.86335 7.30265 5.34851 5.00327 5.34851C2.70388 5.34851 0.839854 5.86335 0.839854 6.49844C0.839854 7.13353 2.70388 7.64837 5.00327 7.64837Z" fill="#6C0905"/>
<path d="M5.99609 6.6689C5.99609 7.03535 4.92053 7.33242 3.59375 7.33242C2.26697 7.33242 1.19141 7.03535 1.19141 6.6689C1.19141 6.30244 2.26697 6.00537 3.59375 6.00537C4.92053 6.00537 5.99609 6.30244 5.99609 6.6689Z" fill="#A91A13"/>
<path fill-rule="evenodd" clip-rule="evenodd" d="M5.78185 5.88648C5.79096 5.74885 5.89132 5.64612 6.00602 5.65705C6.66059 5.71939 7.74108 5.87709 8.40039 6.20674C8.5066 6.25985 8.55682 6.40622 8.51257 6.53367C8.46831 6.66112 8.34634 6.72139 8.24013 6.66828C7.64944 6.37293 6.63097 6.21814 5.97305 6.15548C5.85835 6.14456 5.77275 6.02412 5.78185 5.88648Z" fill="#F93F35"/>
</svg>
