<svg width="18" height="23" viewBox="0 0 18 23" fill="none" xmlns="http://www.w3.org/2000/svg">
<path d="M8.91063 10.2333C8.11118 11.654 7.46235 11.677 7.25636 13.9521C7.00813 16.6936 8.56251 18.9685 10.7058 19.2799C12.8491 19.5913 14.7504 18.0349 14.9986 15.2934C15.2046 13.0182 14.5171 12.7018 13.9356 11.0371C13.291 9.19194 14.053 6.77391 11.7892 6.44505C9.33132 6.088 9.8515 8.56122 8.91063 10.2333Z" fill="#A4D31F"/>
<path fill-rule="evenodd" clip-rule="evenodd" d="M8.05936 10.7546C8.2307 10.524 8.4075 10.2748 8.5925 9.94607C8.79292 9.5899 8.92218 9.17917 9.04124 8.72866C9.06701 8.63113 9.09284 8.52921 9.11927 8.4249C9.2083 8.07354 9.30422 7.69497 9.42843 7.36517C9.59735 6.91671 9.84126 6.48779 10.2528 6.21335C10.6583 5.94289 11.1741 5.85764 11.8336 5.95345C12.4556 6.0438 12.9194 6.28548 13.2545 6.67894C13.5882 7.07089 13.7521 7.56447 13.8485 8.05236C13.9198 8.41367 13.9605 8.81246 13.9985 9.18531C14.0101 9.29939 14.0215 9.41104 14.0334 9.51844C14.0869 10.0005 14.1545 10.4411 14.2928 10.8369C14.4282 11.2245 14.5702 11.5355 14.7101 11.8283C14.7322 11.8744 14.7545 11.9208 14.777 11.9674C14.8936 12.2093 15.0136 12.4584 15.1139 12.7204C15.3695 13.3881 15.4969 14.1326 15.3867 15.3497C15.1093 18.4133 12.9767 20.1078 10.6613 19.7714C8.3212 19.4315 6.59346 16.9304 6.86824 13.8957C6.97759 12.688 7.21188 12.022 7.55285 11.468C7.68302 11.2565 7.82875 11.0624 7.96888 10.8756C7.99938 10.835 8.02961 10.7947 8.05936 10.7546ZM8.24724 11.2229C8.45007 10.9525 8.67372 10.6542 8.91059 10.2333C9.20272 9.7141 9.354 9.11772 9.4973 8.55279C9.81553 7.29823 10.0944 6.19883 11.7891 6.44502C13.3479 6.67146 13.4721 7.8884 13.6087 9.22681C13.6705 9.83219 13.7348 10.4624 13.9355 11.0371C14.105 11.5221 14.2834 11.8927 14.4461 12.2306C14.8419 13.0524 15.1446 13.6811 14.9986 15.2933C14.7504 18.0349 12.8491 19.5912 10.7058 19.2799C8.56247 18.9685 7.00809 16.6936 7.25632 13.9521C7.40128 12.3511 7.76553 11.8653 8.24724 11.2229Z" fill="#5B7C14"/>
<path fill-rule="evenodd" clip-rule="evenodd" d="M8.07886 17.5193C8.38958 17.7606 8.73273 17.954 9.10262 18.0897C11.1748 18.8498 13.2545 17.7172 13.8605 15.0666C14.2169 13.5079 14.0013 12.824 13.7194 11.9301C13.6035 11.5625 13.4764 11.1594 13.3732 10.6453C13.251 10.0363 13.2706 9.40131 13.2895 8.79136C13.3033 8.34376 13.3168 7.90964 13.2734 7.50914C13.4828 7.99451 13.5443 8.59719 13.6085 9.22675C13.6703 9.83212 13.7346 10.4624 13.9354 11.037C14.1048 11.522 14.2833 11.8926 14.446 12.2305C14.8417 13.0524 15.1444 13.681 14.9984 15.2933C14.7502 18.0348 12.8489 19.5912 10.7056 19.2798C9.63099 19.1237 8.70442 18.474 8.07886 17.5193Z" fill="#92BC1B"/>
<path d="M9.94395 10.889C10.3378 11.2569 10.2685 12.2227 9.78913 13.0462C9.30975 13.8697 8.60185 14.239 8.20798 13.8712C7.81411 13.5033 7.88342 12.5375 8.3628 11.714C8.84218 10.8905 9.55008 10.5211 9.94395 10.889Z" fill="#BBEB35"/>
<path d="M11.221 6.89557C11.3571 7.09019 11.2618 7.47866 11.0082 7.76324C10.7546 8.04782 10.4386 8.12075 10.3025 7.92613C10.1664 7.7315 10.2617 7.34303 10.5153 7.05845C10.7689 6.77387 11.0848 6.70094 11.221 6.89557Z" fill="#BBEB35"/>
<path fill-rule="evenodd" clip-rule="evenodd" d="M9.04798 12.0548C9.20428 12.2432 9.21045 12.5564 9.06175 12.7544C8.98861 12.8517 8.94683 12.9353 8.92417 13.0032C8.84013 13.2548 8.61093 13.3726 8.41223 13.2661C8.21354 13.1597 8.12059 12.8694 8.20463 12.6177C8.27152 12.4174 8.37264 12.2362 8.49572 12.0723C8.64442 11.8743 8.89167 11.8665 9.04798 12.0548Z" fill="white"/>
<path d="M14.8393 3.95618C14.8393 3.95618 14.0688 5.2936 13.3433 5.65102C12.6178 6.00844 11.7742 5.46623 11.7742 5.46623C11.7742 5.46623 12.1069 4.34453 12.8324 3.98711C13.5579 3.62969 14.8393 3.95618 14.8393 3.95618Z" fill="#87D623"/>
<path fill-rule="evenodd" clip-rule="evenodd" d="M15.1551 4.2479L14.8396 3.95622L14.9166 3.47115C15.0472 3.50441 15.1554 3.61965 15.2036 3.77687C15.2519 3.93409 15.2336 4.11163 15.1551 4.2479ZM14.3963 3.87184C14.6596 3.91036 14.8396 3.95622 14.8396 3.95622C14.8396 3.95622 14.7313 4.14408 14.5578 4.3978C14.2683 4.82105 13.7971 5.4276 13.3435 5.65107C12.6181 6.00849 11.7745 5.46628 11.7745 5.46628C11.7745 5.46628 12.1071 4.34458 12.8326 3.98716C13.2862 3.76369 13.9571 3.80756 14.3963 3.87184ZM11.7745 5.46628C11.4088 5.29228 11.4088 5.29214 11.4089 5.29199L11.409 5.29167L11.4092 5.29096L11.4097 5.28922L11.4111 5.28452C11.4123 5.28084 11.4137 5.2761 11.4155 5.27034C11.4192 5.25882 11.4242 5.24323 11.4306 5.22404C11.4435 5.1857 11.462 5.13274 11.4865 5.06902C11.5352 4.94217 11.6085 4.76947 11.7081 4.58326C11.9022 4.22032 12.2223 3.75692 12.691 3.52602C13.1404 3.30464 13.7175 3.30651 14.1358 3.34411C14.3539 3.36371 14.5472 3.39507 14.6861 3.4215C14.7557 3.43474 14.8121 3.44685 14.8516 3.45578C14.8714 3.46024 14.887 3.46392 14.898 3.46657L14.9109 3.46973L14.9147 3.47067L14.9163 3.47107L14.9166 3.47115C14.9167 3.47116 14.9166 3.47115 14.8396 3.95622C15.1551 4.2479 15.1551 4.24783 15.1551 4.2479L15.1549 4.24821L15.154 4.24988L15.1517 4.2538L15.1438 4.2672C15.1372 4.27854 15.1276 4.29461 15.1154 4.31484C15.091 4.35528 15.0559 4.41247 15.0116 4.48182C14.9234 4.62012 14.7976 4.80867 14.6473 5.0098C14.359 5.39551 13.9345 5.89083 13.4851 6.11221C13.0164 6.34312 12.5332 6.27552 12.1965 6.17407C12.0238 6.12201 11.8777 6.05742 11.7741 6.0056C11.7221 5.97956 11.6801 5.95642 11.6502 5.93915C11.6352 5.93051 11.6232 5.92331 11.6144 5.91792C11.61 5.91523 11.6064 5.91298 11.6036 5.91123L11.6 5.90899L11.5987 5.90815L11.5979 5.90766C11.5978 5.90758 11.5977 5.90751 11.7745 5.46628ZM11.4088 5.29228L11.7745 5.46628L11.5977 5.90751C11.4202 5.79339 11.3388 5.52837 11.4088 5.29228Z" fill="#156319"/>
<path d="M13.2964 5.51061C13.9133 5.20672 14.5823 4.11487 14.5823 4.11487C13.221 4.34964 12.2777 5.06861 11.9763 5.39875C11.9763 5.39875 12.6796 5.81449 13.2964 5.51061Z" fill="#79C01E"/>
<path d="M10.8424 3.96046C11.0806 4.12754 11.5776 5.44957 11.6902 6.10079C11.6996 6.15512 11.8179 6.11692 11.8102 6.06954C11.7937 5.48118 11.6424 4.05292 11.38 3.5461C11.0207 3.52112 10.8548 3.83378 10.8424 3.96046Z" fill="#8C5936"/>
<path fill-rule="evenodd" clip-rule="evenodd" d="M10.6333 4.37856C10.5063 4.27675 10.436 4.09065 10.4546 3.89995C10.4763 3.67636 10.5916 3.46018 10.734 3.31305C10.8952 3.14638 11.1217 3.03264 11.4012 3.05208C11.5251 3.06069 11.6384 3.14333 11.7064 3.27474C11.8027 3.46073 11.8743 3.69851 11.9292 3.92783C11.986 4.16499 12.0331 4.42827 12.0711 4.68659C12.145 5.18847 12.1892 5.70429 12.1997 6.02846C12.2209 6.30121 12.0681 6.46294 12.0262 6.50167C11.9619 6.56117 11.8945 6.59081 11.844 6.60552C11.7946 6.61991 11.7183 6.63263 11.6324 6.60943C11.5502 6.58725 11.3581 6.49384 11.3084 6.20663C11.2619 5.93724 11.1248 5.48485 10.9627 5.06751C10.8831 4.86256 10.8031 4.68069 10.733 4.54573C10.6978 4.478 10.669 4.42942 10.6475 4.39808C10.6411 4.3888 10.6364 4.38249 10.6333 4.37856ZM11.81 6.06955C11.81 6.06888 11.81 6.06821 11.81 6.06754C11.8067 5.95227 11.7983 5.80506 11.7849 5.639C11.7607 5.33968 11.7205 4.97916 11.6651 4.63425C11.5941 4.19177 11.4983 3.77499 11.3798 3.54612C11.275 3.53884 11.1867 3.56026 11.1138 3.59741C11.0364 3.63688 10.9764 3.6941 10.9327 3.7535C10.8765 3.82994 10.8472 3.90999 10.8422 3.96048C10.9564 4.04054 11.13 4.38581 11.2922 4.79538C11.4057 5.08191 11.5136 5.39991 11.5917 5.6806C11.632 5.82515 11.6643 5.95981 11.6854 6.07518C11.687 6.08383 11.6885 6.09238 11.69 6.10081C11.6994 6.15514 11.8177 6.11694 11.81 6.06955ZM11.4191 6.06829C11.4191 6.09995 11.4216 6.13359 11.4274 6.16919C11.423 6.14217 11.4204 6.11474 11.4197 6.08718C11.4195 6.081 11.4193 6.0747 11.4191 6.06829Z" fill="#583A24"/>
<path d="M11.4558 3.61151C11.5105 3.73572 11.4164 3.93443 11.2454 4.05534C11.0745 4.17625 10.8916 4.17358 10.8368 4.04937C10.782 3.92516 10.8762 3.72644 11.0471 3.60553C11.218 3.48462 11.401 3.48729 11.4558 3.61151Z" fill="#C27A49"/>
<path d="M13.5904 13.8524C13.569 14.0885 13.4006 14.2579 13.2142 14.2308C13.0278 14.2037 12.8941 13.9904 12.9154 13.7543C12.9368 13.5183 13.1052 13.3488 13.2916 13.3759C13.478 13.403 13.6117 13.6163 13.5904 13.8524Z" fill="#83A918"/>
<path d="M14.5253 14.8544C14.504 15.0905 14.3356 15.2599 14.1492 15.2328C13.9628 15.2057 13.829 14.9924 13.8504 14.7563C13.8718 14.5203 14.0402 14.3508 14.2266 14.3779C14.413 14.405 14.5467 14.6183 14.5253 14.8544Z" fill="#83A918"/>
<path d="M14.4824 13.4406C14.4664 13.6177 14.3401 13.7448 14.2003 13.7245C14.0605 13.7041 13.9602 13.5442 13.9762 13.3671C13.9922 13.19 14.1185 13.063 14.2583 13.0833C14.3981 13.1036 14.4984 13.2636 14.4824 13.4406Z" fill="#83A918"/>
<path d="M14.3899 16.3504C14.3685 16.5865 14.2001 16.7559 14.0137 16.7289C13.8273 16.7018 13.6936 16.4885 13.715 16.2524C13.7363 16.0163 13.9047 15.8469 14.0911 15.874C14.2775 15.901 14.4113 16.1144 14.3899 16.3504Z" fill="#83A918"/>
<path d="M13.4549 15.3485C13.4335 15.5846 13.2651 15.754 13.0787 15.7269C12.8924 15.6998 12.7586 15.4865 12.78 15.2504C12.8014 15.0144 12.9698 14.8449 13.1561 14.872C13.3425 14.8991 13.4763 15.1124 13.4549 15.3485Z" fill="#83A918"/>
<path d="M13.5989 17.5348C13.5775 17.7708 13.4091 17.9403 13.2227 17.9132C13.0363 17.8861 12.9026 17.6728 12.9239 17.4367C12.9453 17.2006 13.1137 17.0312 13.3001 17.0583C13.4865 17.0854 13.6202 17.2987 13.5989 17.5348Z" fill="#83A918"/>
<path d="M12.6445 16.7465C12.6231 16.9826 12.4547 17.152 12.2684 17.1249C12.082 17.0979 11.9482 16.8845 11.9696 16.6485C11.991 16.4124 12.1594 16.243 12.3458 16.27C12.5321 16.2971 12.6659 16.5104 12.6445 16.7465Z" fill="#83A918"/>
<path d="M12.6681 18.374C12.6521 18.551 12.5258 18.6781 12.386 18.6578C12.2462 18.6375 12.1459 18.4775 12.1619 18.3004C12.178 18.1234 12.3043 17.9963 12.444 18.0166C12.5838 18.0369 12.6842 18.1969 12.6681 18.374Z" fill="#83A918"/>
<path d="M7.42604 9.49068C7.42604 9.49068 7.38674 11.0877 6.90752 11.7972C6.32993 12.6524 5.21799 12.3307 5.21799 12.3307C5.21799 12.3307 5.13541 11.0663 5.79229 10.2214C6.29758 9.57149 7.42604 9.49068 7.42604 9.49068Z" fill="#10BC17"/>
<path fill-rule="evenodd" clip-rule="evenodd" d="M7.71663 9.50219L7.42606 9.49072L7.40966 9.12308C7.49105 9.11725 7.57064 9.15498 7.62901 9.22707C7.68738 9.29916 7.71917 9.39898 7.71663 9.50219ZM7.13354 9.53216C7.30906 9.4991 7.42606 9.49072 7.42606 9.49072C7.42606 9.49072 7.42245 9.6376 7.40405 9.86206C7.36177 10.3777 7.24143 11.3029 6.90754 11.7973C6.32995 12.6524 5.21802 12.3307 5.21802 12.3307C5.21802 12.3307 5.13543 11.0663 5.79231 10.2214C6.1349 9.7808 6.76395 9.60177 7.13354 9.53216ZM5.21802 12.3307C4.9283 12.3611 4.92829 12.361 4.92828 12.3608L4.92826 12.3605L4.92822 12.3599L4.92811 12.3581L4.92783 12.3533C4.92761 12.3495 4.92735 12.3444 4.92706 12.3382C4.92647 12.3258 4.92579 12.3087 4.92521 12.2873C4.92406 12.2446 4.92335 12.1847 4.92476 12.1111C4.92757 11.9641 4.93889 11.7598 4.97296 11.5261C5.04048 11.0628 5.20152 10.4565 5.58518 9.96307C5.89888 9.55959 6.37713 9.35821 6.73299 9.25366C6.91796 9.19931 7.08526 9.16691 7.20632 9.14803C7.26705 9.13856 7.31664 9.13242 7.35161 9.1286C7.3691 9.12668 7.38297 9.12535 7.39279 9.12447C7.39769 9.12403 7.40159 9.12371 7.40442 9.12348L7.40785 9.12321L7.40936 9.1231L7.40966 9.12308C7.40973 9.12307 7.40966 9.12308 7.42606 9.49072C7.71663 9.50219 7.71663 9.50212 7.71663 9.50219L7.71661 9.50302L7.71657 9.50442L7.71645 9.50895C7.71634 9.51273 7.71617 9.51801 7.71594 9.52472C7.71549 9.53814 7.71477 9.55727 7.71368 9.58151C7.71152 9.62996 7.70791 9.69897 7.70202 9.78362C7.69029 9.95246 7.6694 10.1858 7.63257 10.4435C7.56184 10.9384 7.42231 11.6015 7.12844 12.0366C6.76525 12.5744 6.24806 12.7232 5.86351 12.7523C5.66718 12.7671 5.49247 12.752 5.36698 12.7334C5.30392 12.724 5.25244 12.7137 5.21587 12.7054C5.19756 12.7013 5.18292 12.6976 5.17237 12.6949C5.16709 12.6935 5.16283 12.6924 5.15963 12.6915L5.15564 12.6904L5.15426 12.69L5.15349 12.6898C5.15339 12.6898 5.15329 12.6897 5.21802 12.3307ZM4.9283 12.3611L5.21802 12.3307L5.15329 12.6897C5.02977 12.654 4.93875 12.521 4.9283 12.3611Z" fill="#156319"/>
<path d="M6.71233 11.7349C7.11714 11.2143 7.23021 9.90722 7.23021 9.90722C6.19447 10.6854 5.73553 11.7917 5.597 12.2007C5.597 12.2007 6.30752 12.2556 6.71233 11.7349Z" fill="#07A00E"/>
<path d="M3.02657 11.4085C3.02657 11.4085 3.89824 10.8711 4.45069 11.0302C5.11654 11.2219 5.34152 12.2951 5.34152 12.2951C5.34152 12.2951 4.69205 12.8185 4.00337 12.5547C3.47361 12.3518 3.02657 11.4085 3.02657 11.4085Z" fill="#13CA1B"/>
<path fill-rule="evenodd" clip-rule="evenodd" d="M2.89952 11.0773L3.02674 11.4084L2.77749 11.5979C2.73553 11.5094 2.72486 11.4026 2.74806 11.3036C2.77127 11.2046 2.82622 11.1225 2.89952 11.0773ZM3.19487 11.7155C3.08911 11.54 3.02674 11.4084 3.02674 11.4084C3.02674 11.4084 3.13438 11.342 3.29797 11.2629C3.59993 11.1167 4.09254 10.9269 4.45086 11.0301C5.11671 11.2219 5.3417 12.295 5.3417 12.295C5.3417 12.295 4.69223 12.8184 4.00354 12.5547C3.67166 12.4276 3.37224 12.0098 3.19487 11.7155ZM5.3417 12.295C5.49775 12.6057 5.49767 12.6058 5.49758 12.6058L5.49738 12.606L5.49695 12.6063L5.49591 12.6072L5.49309 12.6094C5.49088 12.6111 5.48804 12.6133 5.48458 12.616C5.47765 12.6213 5.46822 12.6284 5.45644 12.6369C5.4329 12.6539 5.39985 12.6767 5.35848 12.7026C5.27607 12.7544 5.15897 12.8195 5.01722 12.8754C4.7369 12.9858 4.33908 13.0679 3.91941 12.9071C3.57125 12.7738 3.28149 12.4177 3.09641 12.146C2.99914 12.0033 2.92046 11.8682 2.86603 11.7689C2.83871 11.719 2.81722 11.6776 2.80226 11.6481C2.79478 11.6333 2.78892 11.6215 2.78476 11.613L2.77982 11.6028L2.77832 11.5997L2.77782 11.5986L2.77749 11.5979C2.77745 11.5978 2.77749 11.5979 3.02674 11.4084C2.89952 11.0773 2.89947 11.0773 2.89952 11.0773L2.90006 11.077L2.90091 11.0764L2.90357 11.0748L2.9126 11.0694C2.92022 11.0648 2.93102 11.0584 2.94471 11.0505C2.97207 11.0348 3.01107 11.0128 3.05935 10.9872C3.15557 10.9362 3.29032 10.8698 3.44432 10.8084C3.73666 10.6918 4.15771 10.5681 4.51532 10.6711C4.95984 10.7991 5.23746 11.2144 5.39476 11.544C5.4755 11.7132 5.53151 11.8739 5.56743 11.992C5.5855 12.0515 5.59879 12.1011 5.6078 12.137C5.6123 12.155 5.61576 12.1696 5.61821 12.1803C5.61944 12.1857 5.62042 12.1901 5.62116 12.1935L5.62209 12.1978L5.62242 12.1993L5.62261 12.2002C5.62264 12.2004 5.62267 12.2005 5.3417 12.295ZM5.49775 12.6057L5.3417 12.295L5.62267 12.2005C5.65519 12.3556 5.60465 12.5195 5.49775 12.6057Z" fill="#156319"/>
<path fill-rule="evenodd" clip-rule="evenodd" d="M3.15983 11.3331C3.07646 11.3776 3.02663 11.4084 3.02663 11.4084C3.02663 11.4084 3.47367 12.3518 4.00343 12.5546C4.69212 12.8184 5.34159 12.295 5.34159 12.295C5.34159 12.295 5.28794 12.0391 5.1555 11.7549C4.93974 11.9101 4.4709 12.1776 3.959 12.0281C3.65 11.9379 3.35524 11.6028 3.15983 11.3331Z" fill="#33ED3B"/>
<path d="M8.94889 15.2584C9.29788 17.461 8.17112 19.6049 6.43222 20.0469C4.69332 20.489 3.00075 19.0618 2.65177 16.8591C2.30279 14.6565 3.42954 12.5126 5.16844 12.0706C6.90735 11.6285 8.59991 13.0558 8.94889 15.2584Z" fill="#FE9F81"/>
<path fill-rule="evenodd" clip-rule="evenodd" d="M9.23384 15.186C9.61442 17.588 8.38566 19.926 6.48935 20.4081C4.59303 20.8901 2.74725 19.3337 2.36667 16.9317C1.9861 14.5297 3.21485 12.1917 5.11117 11.7097C7.00748 11.2276 8.85327 12.784 9.23384 15.186ZM6.43214 20.0471C8.17105 19.605 9.2978 17.4611 8.94882 15.2585C8.59984 13.0559 6.90727 11.6287 5.16837 12.0707C3.42947 12.5127 2.30271 14.6567 2.6517 16.8593C3.00068 19.0619 4.69324 20.4891 6.43214 20.0471Z" fill="#AB442D"/>
<path fill-rule="evenodd" clip-rule="evenodd" d="M7.71869 19.3219C6.7518 19.3783 5.62839 18.4479 4.94473 16.9008C4.1021 14.9939 4.23921 12.8555 5.23882 12.0537C5.21526 12.059 5.19168 12.0647 5.1681 12.0707C3.42919 12.5127 2.30244 14.6566 2.65142 16.8592C3.0004 19.0618 4.69297 20.4891 6.43187 20.047C6.91401 19.9245 7.34908 19.6711 7.71869 19.3219Z" fill="#FF7E6C"/>
<path d="M6.01715 12.4774C6.44148 12.6403 6.62905 13.4259 6.43611 14.2322C6.24317 15.0384 5.74278 15.5599 5.31845 15.3969C4.89413 15.234 4.70655 14.4484 4.89949 13.6421C5.09243 12.8359 5.59283 12.3144 6.01715 12.4774Z" fill="#FEC0AC"/>
<path fill-rule="evenodd" clip-rule="evenodd" d="M5.42943 13.7244C5.58464 13.7764 5.67718 13.9779 5.63611 14.1745C5.60808 14.3087 5.60396 14.4355 5.62103 14.5587C5.64879 14.759 5.54309 14.9499 5.38496 14.985C5.22682 15.0202 5.07612 14.8863 5.04837 14.686C5.01607 14.4529 5.02553 14.2183 5.07403 13.9861C5.1151 13.7895 5.27422 13.6723 5.42943 13.7244Z" fill="white"/>
<path fill-rule="evenodd" clip-rule="evenodd" d="M5.1322 11.9754C5.50858 11.6808 5.94254 11.6251 6.3158 11.6878C6.39538 11.7012 6.45133 11.7938 6.44076 11.8946C6.4302 11.9954 6.35712 12.0662 6.27754 12.0529C5.95147 11.998 5.58969 12.0502 5.28499 12.2886C4.98437 12.5239 4.72118 12.9545 4.60731 13.7035C4.37606 15.2244 4.85082 16.4643 5.10583 16.879C5.15515 16.9592 5.1438 17.0749 5.08047 17.1374C5.01713 17.1999 4.9258 17.1855 4.87648 17.1053C4.57994 16.623 4.07191 15.2777 4.32185 13.6338C4.44856 12.8004 4.75176 12.2731 5.1322 11.9754Z" fill="#AB442D"/>
<path d="M6.11353 19.2042C6.22724 19.3583 6.22077 19.6 6.09908 19.7441C5.97738 19.8881 5.78655 19.8799 5.67284 19.7258C5.55913 19.5716 5.5656 19.3299 5.6873 19.1859C5.80899 19.0418 5.99982 19.05 6.11353 19.2042Z" fill="#EC6B59"/>
<path d="M7.02192 18.8419C7.13563 18.996 7.12916 19.2377 7.00746 19.3818C6.88577 19.5258 6.69494 19.5176 6.58123 19.3635C6.46752 19.2093 6.47399 18.9676 6.59568 18.8236C6.71738 18.6795 6.90821 18.6877 7.02192 18.8419Z" fill="#EC6B59"/>
<path d="M6.44081 17.9579C6.52905 18.0776 6.52403 18.2652 6.42959 18.3769C6.33515 18.4887 6.18705 18.4823 6.09881 18.3627C6.01056 18.2431 6.01559 18.0555 6.11003 17.9437C6.20447 17.832 6.35256 17.8383 6.44081 17.9579Z" fill="#EC6B59"/>
<path d="M7.60434 18.5095C7.69258 18.6291 7.68756 18.8167 7.59312 18.9284C7.49868 19.0402 7.35058 19.0339 7.26234 18.9142C7.17409 18.7946 7.17911 18.607 7.27356 18.4952C7.368 18.3835 7.51609 18.3898 7.60434 18.5095Z" fill="#EC6B59"/>
<path d="M5.55549 18.2317C5.64374 18.3514 5.63871 18.539 5.54427 18.6507C5.44983 18.7625 5.30174 18.7561 5.21349 18.6365C5.12525 18.5169 5.13027 18.3293 5.22471 18.2175C5.31915 18.1058 5.46725 18.1121 5.55549 18.2317Z" fill="#EC6B59"/>
<path d="M4.32504 17.8661C4.41328 17.9858 4.40826 18.1734 4.31382 18.2851C4.21938 18.3969 4.07128 18.3905 3.98304 18.2709C3.89479 18.1513 3.89982 17.9637 3.99426 17.8519C4.0887 17.7402 4.23679 17.7465 4.32504 17.8661Z" fill="#EC6B59"/>
<path d="M7.83114 17.5383C7.91939 17.6579 7.91436 17.8455 7.81992 17.9573C7.72548 18.069 7.57739 18.0627 7.48914 17.943C7.4009 17.8234 7.40592 17.6358 7.50036 17.5241C7.5948 17.4123 7.7429 17.4186 7.83114 17.5383Z" fill="#EC6B59"/>
<path d="M5.19232 19.2026C5.28056 19.3222 5.27554 19.5098 5.1811 19.6216C5.08666 19.7333 4.93856 19.727 4.85032 19.6073C4.76207 19.4877 4.7671 19.3001 4.86154 19.1884C4.95598 19.0766 5.10407 19.0829 5.19232 19.2026Z" fill="#EC6B59"/>
<path d="M4.88115 18.3797C4.92575 18.4402 4.92321 18.535 4.87548 18.5915C4.82775 18.648 4.7529 18.6448 4.7083 18.5843C4.6637 18.5239 4.66624 18.4291 4.71397 18.3726C4.76171 18.3161 4.83655 18.3193 4.88115 18.3797Z" fill="#EC6B59"/>
<path d="M3.62555 17.9169C3.67015 17.9773 3.66762 18.0721 3.61988 18.1286C3.57215 18.1851 3.4973 18.1819 3.4527 18.1214C3.4081 18.061 3.41064 17.9662 3.45837 17.9097C3.50611 17.8532 3.58095 17.8564 3.62555 17.9169Z" fill="#EC6B59"/>
<path d="M8.2436 18.0574C8.2882 18.1178 8.28566 18.2126 8.23793 18.2691C8.19019 18.3256 8.11534 18.3224 8.07075 18.2619C8.02615 18.2015 8.02868 18.1067 8.07642 18.0502C8.12415 17.9937 8.199 17.9969 8.2436 18.0574Z" fill="#EC6B59"/>
<path d="M7.16034 17.7694C7.20494 17.8299 7.2024 17.9247 7.15467 17.9812C7.10694 18.0376 7.03209 18.0344 6.98749 17.974C6.94289 17.9135 6.94543 17.8187 6.99316 17.7622C7.0409 17.7057 7.11574 17.7089 7.16034 17.7694Z" fill="#EC6B59"/>
<path d="M8.41411 17.2628C8.45871 17.3233 8.45617 17.4181 8.40844 17.4746C8.36071 17.5311 8.28586 17.5278 8.24126 17.4674C8.19666 17.4069 8.1992 17.3121 8.24693 17.2556C8.29466 17.1991 8.36951 17.2023 8.41411 17.2628Z" fill="#EC6B59"/>
<path d="M4.44674 18.6797C4.52039 18.7796 4.5162 18.9361 4.43737 19.0294C4.35855 19.1227 4.23494 19.1174 4.16129 19.0176C4.08763 18.9177 4.09182 18.7612 4.17065 18.6679C4.24948 18.5746 4.37309 18.5799 4.44674 18.6797Z" fill="#EC6B59"/>
</svg>
